<?xml version="1.0" encoding="utf-8"?>
<!-- Generator: Adobe Illustrator 25.0.0, SVG Export Plug-In . SVG Version: 6.00 Build 0)  -->
<svg version="1.1" id="Layer_1" xmlns="http://www.w3.org/2000/svg" xmlns:xlink="http://www.w3.org/1999/xlink" x="0px" y="0px"
	 viewBox="0 0 720 1280" style="enable-background:new 0 0 720 1280;" xml:space="preserve">
<style type="text/css">
	.st0{clip-path:url(#SVGID_2_);}
	.st1{opacity:0.51;}
	.st2{fill:#C63A3E;}
</style>
<image style="overflow:visible;" width="4672" height="7000" xlink:href="../../Base/red-crinkled-paper-texture.jpg"  transform="matrix(0.1541 0 0 0.1829 0 0)">
</image>
<g>
	<defs>
		<rect id="SVGID_1_" x="1.4" width="720" height="1280"/>
	</defs>
	<clipPath id="SVGID_2_">
		<use xlink:href="#SVGID_1_"  style="overflow:visible;"/>
	</clipPath>
	<g class="st0">
		<g class="st1">
			<g>
				<g>
					<path class="st2" d="M405.5,1015.9l-81.8-49.2l32.3-56.6c19.9-33.3,56.4-34.9,80.9,6.8c3.5,6,14.6,24.6,14.6,24.6L405.5,1015.9
						z"/>
				</g>
			</g>
			<g>
				<g>
					<path class="st2" d="M522.6,1059.8l83.5-46.3l32.9,56.3c18.9,33.9,2,66.3-46.3,66.6c-7,0.1-28.7,0.3-28.7,0.3L522.6,1059.8z"/>
				</g>
			</g>
			<g>
				<path class="st2" d="M458.1,1003.6l96.5,4.1l44.6-78.9L571,943.7l-22.1-39.4c-12.4-16.6-14.5-23.4-73.8-23.4h-71.4l0.4,0.2
					c22.9,4.2,35,21.2,38.4,28.4l43.3,79.3L458.1,1003.6z"/>
			</g>
			<g>
				<path class="st2" d="M506.4,1110.3l-51.8,81.5l46,78.1l1.2-31.9l45.2,0.6c20.6-2.4,27.5-0.9,57.2-52.2l35.7-61.8l-0.4,0.3
					c-15.1,17.8-34.9,18.4-42.9,17.7h-90.3L506.4,1110.3z"/>
			</g>
			<g>
				<g>
					<path class="st2" d="M392.8,1095.7l-44.7-85.6l-90.6,0.8l27,16.9l-23.1,38.8c-22.3,40.3,12.7,70.1,51.8,70.1h17.5l35.4-57.7
						L392.8,1095.7z"/>
				</g>
			</g>
			<g>
				<path class="st2" d="M431.8,1142.5l-0.9,97.7h-80.2c0,0-28,0-40.9-26.1c-11.5-23.1-48.8-92.5-48.8-92.5s13.6,20.2,43.5,20.9
					C356.2,1143.7,431.8,1142.5,431.8,1142.5z"/>
			</g>
		</g>
		<g class="st1">
			<g>
				<g>
					<path class="st2" d="M244.3,679.1l-28.6-17.2l11.3-19.8c7-11.6,19.7-12.2,28.2,2.4c1.2,2.1,5.1,8.6,5.1,8.6L244.3,679.1z"/>
				</g>
			</g>
			<g>
				<g>
					<path class="st2" d="M285.2,694.4l29.2-16.2l11.5,19.7c6.6,11.8,0.7,23.2-16.2,23.3c-2.4,0-10,0.1-10,0.1L285.2,694.4z"/>
				</g>
			</g>
			<g>
				<path class="st2" d="M262.7,674.8l33.7,1.4l15.6-27.6l-9.8,5.2l-7.7-13.8c-4.3-5.8-5.1-8.2-25.8-8.2h-25l0.2,0.1
					c8,1.5,12.2,7.4,13.4,9.9l15.1,27.7L262.7,674.8z"/>
			</g>
			<g>
				<path class="st2" d="M279.6,712.1l-18.1,28.5l16.1,27.3l0.4-11.1l15.8,0.2c7.2-0.8,9.6-0.3,20-18.2l12.5-21.6l-0.2,0.1
					c-5.3,6.2-12.2,6.4-15,6.2h-31.5L279.6,712.1z"/>
			</g>
			<g>
				<g>
					<path class="st2" d="M239.9,707l-15.6-29.9l-31.7,0.3l9.4,5.9l-8.1,13.6c-7.8,14.1,4.4,24.5,18.1,24.5h6.1l12.4-20.2L239.9,707
						z"/>
				</g>
			</g>
			<g>
				<path class="st2" d="M253.5,723.3l-0.3,34.1h-28c0,0-9.8,0-14.3-9.1c-4-8.1-17.1-32.3-17.1-32.3s4.8,7,15.2,7.3
					C227.1,723.8,253.5,723.3,253.5,723.3z"/>
			</g>
		</g>
		<g class="st1">
			<g>
				<g>
					<path class="st2" d="M-28.5,361.1l-52.2-31.4l20.6-36.1c12.7-21.3,36-22.2,51.6,4.3c2.3,3.8,9.3,15.7,9.3,15.7L-28.5,361.1z"/>
				</g>
			</g>
			<g>
				<g>
					<path class="st2" d="M46.2,389.1l53.3-29.5l21,35.9c12.1,21.6,1.3,42.3-29.5,42.5c-4.5,0-18.3,0.2-18.3,0.2L46.2,389.1z"/>
				</g>
			</g>
			<g>
				<path class="st2" d="M5,353.2l61.6,2.6l28.5-50.4l-18,9.5L63,289.9c-7.9-10.6-9.2-14.9-47.1-14.9h-45.6l0.3,0.2
					c14.6,2.7,22.4,13.5,24.5,18.1l27.6,50.6L5,353.2z"/>
			</g>
			<g>
				<path class="st2" d="M35.9,421.4l-33.1,52l29.4,49.8l0.7-20.3l28.8,0.4c13.2-1.5,17.6-0.5,36.5-33.3l22.8-39.5l-0.3,0.2
					c-9.6,11.3-22.3,11.7-27.4,11.3H35.8L35.9,421.4z"/>
			</g>
			<g>
				<g>
					<path class="st2" d="M-36.6,412l-28.5-54.6l-57.8,0.5l17.3,10.8l-14.7,24.8c-14.3,25.7,8.1,44.7,33.1,44.7h11.2l22.6-36.8
						L-36.6,412z"/>
				</g>
			</g>
			<g>
				<path class="st2" d="M-11.8,441.9l-0.6,62.4h-51.2c0,0-17.8,0-26.1-16.7c-7.3-14.7-31.2-59-31.2-59s8.7,12.9,27.8,13.3
					C-60,442.7-11.8,441.9-11.8,441.9z"/>
			</g>
		</g>
		<g class="st1">
			<g>
				<g>
					<path class="st2" d="M691.5,361.1l-52.2-31.4l20.6-36.1c12.7-21.3,36-22.2,51.6,4.3c2.3,3.8,9.3,15.7,9.3,15.7L691.5,361.1z"/>
				</g>
			</g>
			<g>
				<g>
					<path class="st2" d="M766.2,389.1l53.3-29.5l21,35.9c12.1,21.6,1.3,42.3-29.5,42.5c-4.5,0-18.3,0.2-18.3,0.2L766.2,389.1z"/>
				</g>
			</g>
			<g>
				<path class="st2" d="M725,353.2l61.6,2.6l28.5-50.4l-18,9.5L783,289.9c-7.9-10.6-9.2-14.9-47.1-14.9h-45.6l0.3,0.2
					c14.6,2.7,22.4,13.5,24.5,18.1l27.6,50.6L725,353.2z"/>
			</g>
			<g>
				<path class="st2" d="M755.9,421.4l-33.1,52l29.4,49.8l0.7-20.3l28.8,0.4c13.2-1.5,17.6-0.5,36.5-33.3l22.8-39.5l-0.3,0.2
					c-9.6,11.3-22.3,11.7-27.4,11.3h-57.6L755.9,421.4z"/>
			</g>
			<g>
				<g>
					<path class="st2" d="M683.4,412l-28.5-54.6l-57.8,0.5l17.3,10.8l-14.7,24.8c-14.3,25.7,8.1,44.7,33.1,44.7h11.2l22.6-36.8
						L683.4,412z"/>
				</g>
			</g>
			<g>
				<path class="st2" d="M708.2,441.9l-0.6,62.4h-51.2c0,0-17.8,0-26.1-16.7c-7.3-14.7-31.2-59-31.2-59s8.7,12.9,27.8,13.3
					C660,442.7,708.2,441.9,708.2,441.9z"/>
			</g>
		</g>
		<g class="st1">
			<g>
				<g>
					<path class="st2" d="M443.6,452.9l-14.7-8.8l5.8-10.1c3.6-6,10.1-6.2,14.5,1.2c0.6,1.1,2.6,4.4,2.6,4.4L443.6,452.9z"/>
				</g>
			</g>
			<g>
				<g>
					<path class="st2" d="M464.6,460.7l15-8.3l5.9,10.1c3.4,6.1,0.4,11.9-8.3,11.9c-1.3,0-5.1,0.1-5.1,0.1L464.6,460.7z"/>
				</g>
			</g>
			<g>
				<path class="st2" d="M453,450.7l17.3,0.7l8-14.1l-5,2.7l-4-7.1c-2.2-3-2.6-4.2-13.2-4.2h-12.8l0.1,0c4.1,0.8,6.3,3.8,6.9,5.1
					L458,448L453,450.7z"/>
			</g>
			<g>
				<path class="st2" d="M461.7,469.8l-9.3,14.6l8.2,14l0.2-5.7l8.1,0.1c3.7-0.4,4.9-0.2,10.2-9.4l6.4-11.1l-0.1,0
					c-2.7,3.2-6.3,3.3-7.7,3.2h-16.2L461.7,469.8z"/>
			</g>
			<g>
				<g>
					<path class="st2" d="M441.3,467.2l-8-15.3l-16.2,0.1l4.8,3l-4.1,7c-4,7.2,2.3,12.6,9.3,12.6h3.1l6.3-10.3L441.3,467.2z"/>
				</g>
			</g>
			<g>
				<path class="st2" d="M448.3,475.5l-0.2,17.5h-14.4c0,0-5,0-7.3-4.7c-2.1-4.1-8.8-16.6-8.8-16.6s2.4,3.6,7.8,3.7
					C434.7,475.8,448.3,475.5,448.3,475.5z"/>
			</g>
		</g>
		<g class="st1">
			<g>
				<g>
					<path class="st2" d="M596.1,91.5l-14.7-8.8l5.8-10.1c3.6-6,10.1-6.2,14.5,1.2c0.6,1.1,2.6,4.4,2.6,4.4L596.1,91.5z"/>
				</g>
			</g>
			<g>
				<g>
					<path class="st2" d="M617,99.4l15-8.3l5.9,10.1c3.4,6.1,0.4,11.9-8.3,11.9c-1.3,0-5.1,0.1-5.1,0.1L617,99.4z"/>
				</g>
			</g>
			<g>
				<path class="st2" d="M605.5,89.3l17.3,0.7l8-14.1l-5,2.7l-4-7.1c-2.2-3-2.6-4.2-13.2-4.2h-12.8l0.1,0c4.1,0.8,6.3,3.8,6.9,5.1
					l7.8,14.2L605.5,89.3z"/>
			</g>
			<g>
				<path class="st2" d="M614.1,108.4l-9.3,14.6l8.2,14l0.2-5.7l8.1,0.1c3.7-0.4,4.9-0.2,10.2-9.4L638,111l-0.1,0
					c-2.7,3.2-6.3,3.3-7.7,3.2h-16.2L614.1,108.4z"/>
			</g>
			<g>
				<g>
					<path class="st2" d="M593.8,105.8l-8-15.3l-16.2,0.1l4.8,3l-4.1,7c-4,7.2,2.3,12.6,9.3,12.6h3.1l6.3-10.3L593.8,105.8z"/>
				</g>
			</g>
			<g>
				<path class="st2" d="M600.8,114.2l-0.2,17.5h-14.4c0,0-5,0-7.3-4.7c-2.1-4.1-8.8-16.6-8.8-16.6s2.4,3.6,7.8,3.7
					C587.2,114.4,600.8,114.2,600.8,114.2z"/>
			</g>
		</g>
		<g class="st1">
			<g>
				<g>
					<path class="st2" d="M196.4,182L176,169.7l8.1-14.2c5-8.3,14.1-8.7,20.2,1.7c0.9,1.5,3.7,6.2,3.7,6.2L196.4,182z"/>
				</g>
			</g>
			<g>
				<g>
					<path class="st2" d="M225.7,193l20.9-11.6l8.2,14.1c4.7,8.5,0.5,16.6-11.6,16.7c-1.7,0-7.2,0.1-7.2,0.1L225.7,193z"/>
				</g>
			</g>
			<g>
				<path class="st2" d="M209.6,179l24.1,1l11.2-19.7l-7.1,3.7l-5.5-9.9c-3.1-4.2-3.6-5.9-18.5-5.9H196l0.1,0.1
					c5.7,1.1,8.8,5.3,9.6,7.1l10.8,19.8L209.6,179z"/>
			</g>
			<g>
				<path class="st2" d="M221.7,205.7l-13,20.4l11.5,19.5l0.3-8l11.3,0.1c5.2-0.6,6.9-0.2,14.3-13.1l8.9-15.5l-0.1,0.1
					c-3.8,4.4-8.7,4.6-10.7,4.4h-22.6L221.7,205.7z"/>
			</g>
			<g>
				<g>
					<path class="st2" d="M193.3,202l-11.2-21.4l-22.7,0.2l6.8,4.2l-5.8,9.7c-5.6,10.1,3.2,17.5,13,17.5h4.4l8.9-14.4L193.3,202z"/>
				</g>
			</g>
			<g>
				<path class="st2" d="M203,213.7l-0.2,24.5h-20.1c0,0-7,0-10.2-6.5c-2.9-5.8-12.2-23.2-12.2-23.2s3.4,5,10.9,5.2
					C184.1,214,203,213.7,203,213.7z"/>
			</g>
		</g>
		<g class="st1">
			<g>
				<g>
					<path class="st2" d="M621.5,799.7l-13.8-8.3l5.4-9.5c3.4-5.6,9.5-5.9,13.6,1.1c0.6,1,2.5,4.1,2.5,4.1L621.5,799.7z"/>
				</g>
			</g>
			<g>
				<g>
					<path class="st2" d="M641.2,807.1l14-7.8l5.5,9.5c3.2,5.7,0.3,11.1-7.8,11.2c-1.2,0-4.8,0.1-4.8,0.1L641.2,807.1z"/>
				</g>
			</g>
			<g>
				<path class="st2" d="M630.3,797.6l16.2,0.7l7.5-13.3l-4.7,2.5l-3.7-6.6c-2.1-2.8-2.4-3.9-12.4-3.9h-12l0.1,0
					c3.9,0.7,5.9,3.6,6.5,4.8l7.3,13.3L630.3,797.6z"/>
			</g>
			<g>
				<path class="st2" d="M638.5,815.6l-8.7,13.7l7.7,13.1l0.2-5.4l7.6,0.1c3.5-0.4,4.6-0.1,9.6-8.8l6-10.4l-0.1,0
					c-2.5,3-5.9,3.1-7.2,3h-15.2L638.5,815.6z"/>
			</g>
			<g>
				<g>
					<path class="st2" d="M619.4,813.1l-7.5-14.4l-15.2,0.1l4.5,2.8l-3.9,6.5c-3.8,6.8,2.1,11.8,8.7,11.8h2.9l6-9.7L619.4,813.1z"/>
				</g>
			</g>
			<g>
				<path class="st2" d="M625.9,821l-0.2,16.4h-13.5c0,0-4.7,0-6.9-4.4c-1.9-3.9-8.2-15.6-8.2-15.6s2.3,3.4,7.3,3.5
					C613.2,821.2,625.9,821,625.9,821z"/>
			</g>
		</g>
		<g class="st1">
			<g>
				<g>
					<path class="st2" d="M80.3,1041l-20.2-12.1l8-14c4.9-8.2,13.9-8.6,19.9,1.7c0.9,1.5,3.6,6.1,3.6,6.1L80.3,1041z"/>
				</g>
			</g>
			<g>
				<g>
					<path class="st2" d="M109.2,1051.8l20.6-11.4l8.1,13.9c4.7,8.4,0.5,16.3-11.4,16.4c-1.7,0-7.1,0.1-7.1,0.1L109.2,1051.8z"/>
				</g>
			</g>
			<g>
				<path class="st2" d="M93.2,1037.9l23.8,1l11-19.5l-7,3.7l-5.4-9.7c-3.1-4.1-3.6-5.8-18.2-5.8H79.8l0.1,0.1c5.7,1,8.6,5.2,9.5,7
					l10.7,19.5L93.2,1037.9z"/>
			</g>
			<g>
				<path class="st2" d="M105.2,1064.3l-12.8,20.1l11.4,19.3l0.3-7.9l11.1,0.1c5.1-0.6,6.8-0.2,14.1-12.9l8.8-15.3l-0.1,0.1
					c-3.7,4.4-8.6,4.5-10.6,4.4h-22.3L105.2,1064.3z"/>
			</g>
			<g>
				<g>
					<path class="st2" d="M77.1,1060.7l-11-21.1l-22.4,0.2l6.7,4.2l-5.7,9.6c-5.5,9.9,3.1,17.3,12.8,17.3h4.3l8.7-14.2L77.1,1060.7z
						"/>
				</g>
			</g>
			<g>
				<path class="st2" d="M86.8,1072.2l-0.2,24.1H66.7c0,0-6.9,0-10.1-6.4c-2.8-5.7-12-22.8-12-22.8s3.4,5,10.7,5.2
					C68.1,1072.5,86.8,1072.2,86.8,1072.2z"/>
			</g>
		</g>
	</g>
</g>
</svg>
